<!-- Generator: Adobe Illustrator 28.2.0, SVG Export Plug-In . SVG Version: 6.00 Build 0)  -->
<svg version="1.1" id="Layer_1" xmlns="http://www.w3.org/2000/svg" xmlns:xlink="http://www.w3.org/1999/xlink" x="0px" y="0px"
	 viewBox="0 0 1080 1080" xml:space="preserve">
<style type="text/css">
	.st0{fill:#FFFFFF;}
</style>
<g>
	<g>
		<path class="st0" d="M14.8,43.2v290.5c0,16.5,13.3,29.8,29.8,29.8h320.3V43.2c0-16.5-13.3-29.8-29.8-29.8H44.6
			C28.1,13.4,14.8,26.8,14.8,43.2z"/>
		<path class="st0" d="M693,30l-328,333.6h230.1c66.3,0,120,53.7,120,120v230.1v352.9h350.1V713.7V363.6l0,0
			c0-187.7-147.7-340.9-333.3-349.7c-0.3,0-0.7,0-1.1,0C716.6,13.8,703,19.8,693,30z"/>
		<path class="st0" d="M24.2,1066.6h331.3c5.2,0,9.4-4.2,9.4-9.4V713.7V363.6L30.6,697.9c-10.1,10.1-15.8,23.8-15.8,38v321.1
			C14.8,1062.3,19,1066.6,24.2,1066.6z"/>
	</g>
</g>
</svg>
